# xmcd
# 
# Track frame offsets:
#     150
#     28795
#     47586
#     68851
#     96371
#     120198
#     137970
#     158931
# 
# Disc length: 2456
# 
# Revision: 0
# Processed by: cddbd v1.5.2PL0 Copyright (c) Steve Scherf et al.
# Submitted via: fre:ac v1.1beta1pre3
# 
DISCID=69099608
DTITLE=Souwer cherry - さんまいめ。
DYEAR=2012
DGENRE=JPop
TTITLE0=星のキズナ-STAR CHAIN-
TTITLE1=メルクリウスの灯
TTITLE2=SCARLET HEART
TTITLE3=鏡
TTITLE4=garnet
TTITLE5=BREAK OUT！
TTITLE6=しゃぼん玉
TTITLE7=空のイーリス(new×take)
EXTD=
EXTT0=
EXTT1=
EXTT2=
EXTT3=
EXTT4=
EXTT5=
EXTT6=
EXTT7=
PLAYORDER=
